<svg xmlns="http://www.w3.org/2000/svg" viewBox="0 0 64 64">
  <!-- Background: newspaper ink -->
  <rect width="64" height="64" rx="14" fill="#1a0e06"/>

  <!-- Lucide Beer icon paths, scaled to fill the background with padding -->
  <g transform="translate(10, 10) scale(1.833)"
     fill="none"
     stroke="#f0e6cf"
     stroke-width="1.5"
     stroke-linecap="round"
     stroke-linejoin="round">
    <path d="M17 11h1a3 3 0 0 1 0 6h-1"/>
    <path d="M9 12v6"/>
    <path d="M13 12v6"/>
    <path d="M14 7.5c-1 0-1.44.5-3 .5s-2-.5-3-.5-1.72.5-2.5.5a2.5 2.5 0 0 1 0-5c.78 0 1.57.5 2.5.5S9.44 2 11 2s2 1.5 3 1.5 1.72-.5 2.5-.5a2.5 2.5 0 0 1 0 5c-.78 0-1.5-.5-2.5-.5Z"/>
    <path d="M5 8v12a2 2 0 0 0 2 2h8a2 2 0 0 0 2-2V8"/>
  </g>
</svg>
